<svg xmlns="http://www.w3.org/2000/svg" viewBox="0 0 8000 6000">
    <rect fill="#E30613" width="100%" height="1000" y="0" x="0"/>
    <rect fill="#F18815" width="100%" height="1000" y="1000" x="0"/>
    <rect fill="#FFED00" width="100%" height="1000" y="2000" x="0"/>
    <rect fill="#028137" width="100%" height="1000" y="3000" x="0"/>
    <rect fill="#2E57A4" width="100%" height="1000" y="4000" x="0"/>
    <rect fill="#6E2381" width="100%" height="1000" y="5000" x="0"/>

    <polygon fill="#FFFFFF" points="
    0,1500  1500,3000   0,4500"/>
    <polygon fill="#FFAFC8" points="
    0,1000   2000,3000  0,5000
    0,4500   1500,3000  0,1500 "/>
    <polygon fill="#74D7EE" points="
    0,500   2500,3000   0,5500
    0,5000  2000,3000   0,1000"/>
    <polygon fill="#613915" points="
    0,0     3000,3000   0,6000
    0,5500  2500,3000 0,500"/>
    <polygon fill="#000000" points="
    500,0   3500,3000   500,6000
    0,6000  3000,3000 0,0"/>
</svg>